<svg xmlns="http://www.w3.org/2000/svg" width="886" height="986" viewBox="0 0 886 986" version="1.1">
	<path d="M 421 5.963 C 421 8.128, 418.396 9.996, 417.136 8.736 C 415.939 7.539, 415.577 8.608, 415.948 12.250 C 416.182 14.549, 415.120 14.461, 412.457 11.960 C 409.644 9.317, 404.490 8.228, 405.346 10.458 C 405.724 11.445, 405.370 12, 404.362 12 C 403.427 12, 403.003 12.566, 403.319 13.390 C 403.989 15.135, 399.280 16.206, 394.842 15.318 C 391.989 14.748, 391.738 14.892, 392.240 16.809 C 392.638 18.332, 392.245 19.105, 390.845 19.549 C 389.356 20.022, 389.155 20.482, 389.996 21.495 C 390.770 22.428, 390.781 23.017, 390.032 23.480 C 389.447 23.842, 389.226 24.557, 389.543 25.069 C 389.859 25.581, 389.390 26, 388.500 26 C 387.610 26, 387.178 26.478, 387.539 27.063 C 387.900 27.648, 386.367 29.814, 384.132 31.878 C 379.055 36.566, 374.032 47.796, 373.927 54.695 C 373.887 57.338, 373.493 61.975, 373.051 65 C 372.596 68.115, 372.637 70.989, 373.145 71.628 C 373.677 72.297, 373.661 73.760, 373.106 75.221 C 371.827 78.586, 370.878 86.110, 370.676 94.500 C 370.543 99.984, 370.988 102.450, 372.728 105.886 C 373.950 108.298, 374.731 110.626, 374.463 111.059 C 374.196 111.492, 372.628 112.142, 370.980 112.504 C 369.331 112.867, 368.169 113.464, 368.396 113.831 C 368.623 114.199, 367.614 114.560, 366.155 114.632 C 361.901 114.844, 359 115.384, 358.999 115.963 C 358.999 116.258, 357.808 116.569, 356.353 116.653 C 351.618 116.928, 335.046 122.266, 335.691 123.309 C 336.031 123.859, 335.842 124.021, 335.272 123.668 C 332.410 121.899, 302 135.064, 302 138.072 C 302 138.647, 302.526 138.793, 303.170 138.395 C 303.932 137.924, 304.138 138.197, 303.762 139.177 C 303.445 140.004, 303.587 141.316, 304.077 142.091 C 304.774 143.191, 304.973 143.210, 304.985 142.179 C 304.993 141.452, 305.756 140.102, 306.681 139.179 C 308.255 137.607, 308.324 137.643, 307.774 139.750 C 307.451 140.988, 307.595 142, 308.094 142 C 308.592 142, 309.014 141.438, 309.032 140.750 C 309.051 140.006, 309.620 140.233, 310.436 141.310 C 311.959 143.319, 313.357 142.094, 312.396 139.590 C 311.568 137.433, 313.909 137.546, 315.705 139.750 C 317 141.339, 317.088 141.226, 316.660 138.519 C 316.223 135.751, 316.289 135.675, 317.595 137.460 C 319.664 140.290, 319.327 141.667, 316.250 142.959 C 310.530 145.362, 306.885 147.811, 308.002 148.501 C 308.620 148.883, 309.885 148.531, 310.813 147.717 C 311.930 146.739, 313.176 146.513, 314.500 147.049 C 316.446 147.837, 316.442 147.861, 314.372 147.930 C 313.202 147.968, 311.627 148.787, 310.872 149.750 C 309.603 151.369, 309.644 151.387, 311.423 150 C 313.206 148.610, 313.306 148.659, 312.787 150.675 C 312.352 152.364, 312.593 152.734, 313.863 152.331 C 315.265 151.886, 315.285 151.963, 314.009 152.864 C 313.189 153.443, 312.514 154.684, 312.509 155.622 C 312.504 156.560, 311.825 157.552, 311 157.827 C 309.667 158.270, 309.667 158.122, 311 156.499 C 312.405 154.788, 312.357 154.749, 310.226 155.884 C 308.354 156.882, 307.671 156.814, 306.357 155.500 C 305.480 154.623, 304.553 154.114, 304.298 154.369 C 304.042 154.624, 304.801 155.801, 305.984 156.984 C 307.503 158.503, 307.837 159.491, 307.122 160.353 C 306.388 161.237, 306.623 161.571, 307.976 161.571 C 309.485 161.571, 309.651 161.216, 308.845 159.710 C 307.958 158.054, 308.076 157.970, 309.914 158.954 C 311.649 159.883, 311.789 160.365, 310.790 161.965 C 310.135 163.013, 309.189 163.617, 308.688 163.307 C 308.187 162.997, 307.422 163.317, 306.989 164.018 C 306.483 164.836, 305.540 165.002, 304.351 164.482 C 303.333 164.037, 302.050 163.624, 301.500 163.564 C 300.950 163.504, 300.653 162.589, 300.839 161.531 C 301.130 159.878, 300.954 159.793, 299.589 160.926 C 298.531 161.805, 298 161.870, 298 161.122 C 298 160.505, 298.477 160, 299.059 160 C 299.641 160, 299.843 159.555, 299.507 159.011 C 299.156 158.443, 299.561 158.278, 300.459 158.623 C 301.638 159.075, 301.855 158.786, 301.341 157.447 C 300.835 156.128, 301.004 155.884, 302 156.500 C 302.979 157.105, 303.168 156.880, 302.701 155.664 C 302.350 154.749, 302.430 154, 302.878 154 C 303.327 154, 304.685 153.140, 305.897 152.090 C 307.415 150.772, 307.739 149.957, 306.938 149.462 C 306.299 149.067, 305.485 149.216, 305.128 149.793 C 304.772 150.369, 303.250 151.150, 301.747 151.527 C 300.244 151.905, 299.249 152.594, 299.537 153.060 C 299.825 153.526, 299.280 154.818, 298.326 155.932 C 297.047 157.425, 296.389 157.635, 295.821 156.729 C 295.396 156.053, 295.234 156.994, 295.461 158.819 C 295.789 161.468, 295.607 161.919, 294.563 161.052 C 293.843 160.454, 292.521 160.246, 291.627 160.590 C 290.732 160.933, 290 160.758, 290 160.201 C 290 159.643, 289.151 159.409, 288.113 159.681 C 285.887 160.263, 284.742 158.835, 285.614 156.565 C 286.128 155.225, 286.512 155.167, 287.867 156.224 C 289.290 157.336, 289.339 157.293, 288.244 155.890 C 287.522 154.965, 286.032 154.454, 284.744 154.690 C 283.510 154.915, 278.225 154.443, 273 153.641 C 259.466 151.563, 245.861 152.268, 236.732 155.520 C 232.754 156.937, 228.765 158.264, 227.867 158.469 C 226.416 158.799, 221.574 161.269, 215.738 164.655 C 211.388 167.180, 200.263 176.848, 203.750 175.074 C 205.851 174.006, 206.442 174.321, 206.094 176.324 C 206.015 176.778, 206.433 176.850, 207.024 176.485 C 207.777 176.020, 207.747 175.401, 206.926 174.411 C 205.478 172.666, 207.085 172.541, 209.002 174.250 C 210.186 175.306, 210.207 175.240, 209.137 173.820 C 208.062 172.393, 208.221 171.955, 210.185 170.920 C 211.458 170.249, 212.880 169.205, 213.344 168.600 C 213.844 167.949, 213.945 168.316, 213.592 169.500 C 213.004 171.470, 213.017 171.471, 214.498 169.559 C 215.324 168.491, 216 168.101, 216 168.691 C 216 170.080, 223.278 167.666, 223.799 166.104 C 224.021 165.436, 223.443 165.234, 222.334 165.594 C 220.821 166.085, 220.762 166.004, 221.998 165.132 C 222.822 164.551, 224.959 164.263, 226.748 164.492 C 228.552 164.723, 230 164.457, 230 163.895 C 230 163.338, 230.450 163.160, 231 163.500 C 232.591 164.483, 232.166 165.813, 230.045 166.486 C 228.481 166.982, 228.263 167.561, 228.954 169.379 C 229.670 171.263, 229.495 171.629, 227.930 171.513 C 225.581 171.340, 224.085 170, 226.240 170 C 227.317 170, 227.649 169.374, 227.293 168.011 C 227.007 166.917, 226.366 166.274, 225.870 166.580 C 225.374 166.887, 225.223 167.552, 225.536 168.058 C 225.850 168.566, 225.337 168.683, 224.388 168.319 C 223.292 167.898, 222.912 168.049, 223.337 168.737 C 223.755 169.412, 223.299 169.629, 222.114 169.320 C 221.076 169.048, 219.905 169.345, 219.513 169.979 C 218.430 171.731, 219.957 172.656, 221.149 170.971 C 221.993 169.777, 222.077 169.845, 221.594 171.332 C 221.267 172.339, 221 173.338, 221 173.550 C 221 173.763, 220.384 173.701, 219.631 173.412 C 218.807 173.096, 217.971 173.804, 217.529 175.193 C 216.144 179.551, 215.986 181.127, 216.997 180.502 C 217.549 180.161, 218 180.782, 218 181.882 C 218 182.982, 218.450 184.160, 219 184.500 C 219.550 184.840, 220 184.615, 220 184 C 220 183.385, 220.450 183.160, 221 183.500 C 221.550 183.840, 222 183.593, 222 182.952 C 222 182.311, 221.325 182.045, 220.500 182.362 C 219.593 182.710, 219 182.366, 219 181.490 C 219 180.307, 219.459 180.252, 221.516 181.189 L 224.033 182.336 221.766 184.909 C 220.520 186.325, 219.186 187.723, 218.803 188.018 C 218.419 188.312, 218.469 189.141, 218.914 189.861 C 219.521 190.843, 219.849 190.685, 220.232 189.222 C 220.785 187.107, 227.101 183.329, 226.719 185.342 C 226.599 185.979, 227.046 186.393, 227.714 186.262 C 228.471 186.113, 228.685 186.659, 228.280 187.711 C 227.874 188.771, 227.484 188.953, 227.233 188.199 C 226.751 186.754, 224 186.584, 224 188 C 224 188.550, 224.563 189.037, 225.250 189.082 C 225.938 189.126, 224.925 189.880, 223 190.756 C 220.420 191.930, 219.960 192.454, 221.250 192.748 C 223.300 193.215, 223.466 194.134, 221.800 195.800 C 220.922 196.678, 220.909 197, 221.752 197 C 222.458 197, 222.754 198.197, 222.515 200.083 C 222.225 202.369, 222.475 203.032, 223.480 202.646 C 224.817 202.133, 226.538 204.796, 225.524 205.810 C 225.236 206.098, 225 205.857, 225 205.275 C 225 204.693, 223.967 203.958, 222.704 203.641 C 221.429 203.321, 219.931 201.828, 219.334 200.282 C 218.522 198.180, 218.260 197.989, 218.263 199.500 C 218.265 200.600, 217.940 202.400, 217.539 203.500 C 216.956 205.102, 217.026 205.202, 217.890 204 C 218.844 202.675, 218.971 202.681, 218.985 204.050 C 218.993 204.903, 218.662 206.037, 218.250 206.571 C 217.838 207.105, 218.255 206.736, 219.178 205.750 C 220.105 204.759, 221.119 204.383, 221.444 204.909 C 221.768 205.433, 221.527 206.174, 220.910 206.556 C 220.094 207.060, 220.119 207.455, 221 208 C 221.867 208.536, 221.898 208.945, 221.107 209.434 C 220.498 209.810, 220 209.557, 220 208.870 C 220 208.160, 219.167 208.517, 218.065 209.700 C 216.858 210.996, 216.337 212.573, 216.681 213.889 C 216.992 215.079, 216.760 216, 216.148 216 C 215.551 216, 215.345 215.264, 215.691 214.364 C 216.908 211.193, 213.542 213.581, 211.372 217.429 C 210.201 219.504, 208.961 220.745, 208.615 220.187 C 208.270 219.628, 208.553 218.943, 209.244 218.664 C 210.240 218.263, 210.236 218.142, 209.225 218.079 C 208.524 218.036, 207.519 219.135, 206.991 220.523 C 206.206 222.589, 205.576 222.932, 203.516 222.415 C 202.010 222.037, 201 222.210, 201 222.846 C 201 223.431, 199.425 224.205, 197.500 224.566 C 195.495 224.942, 194 225.816, 194 226.611 C 194 227.375, 193.325 228, 192.500 228 C 191.500 228, 191 229, 191 231 C 191 234.039, 189.709 234.957, 188.405 232.845 C 187.925 232.069, 188.151 231.958, 189.095 232.506 C 189.927 232.988, 190.160 232.949, 189.667 232.410 C 189.208 231.910, 188.533 231.493, 188.167 231.485 C 187.800 231.476, 186.938 231.112, 186.250 230.676 C 185.537 230.223, 185 230.337, 185 230.941 C 185 231.523, 185.477 232, 186.059 232 C 186.641 232, 186.865 232.409, 186.556 232.910 C 185.638 234.394, 186.995 236.766, 189.073 237.309 C 191.670 237.988, 190.611 240.549, 186.985 242.358 C 185.199 243.249, 183.815 243.415, 183.212 242.812 C 182.609 242.209, 182.080 242.802, 181.769 244.430 C 181.498 245.843, 181.665 247, 182.139 247 C 182.612 247, 183.004 246.662, 183.008 246.250 C 183.012 245.838, 184.250 244.950, 185.758 244.277 L 188.500 243.054 185.604 245.431 C 184.011 246.739, 181.441 248.062, 179.893 248.371 C 178.345 248.681, 175.319 250.524, 173.168 252.467 C 170.781 254.623, 168.233 256, 166.629 256 C 165.183 256, 164 256.450, 164 257 C 164 257.550, 163.662 257.931, 163.250 257.846 C 161.957 257.579, 155.398 260.815, 154.127 262.347 C 153.459 263.152, 152.145 263.700, 151.206 263.565 C 148.875 263.231, 148.503 257.666, 150.341 250.625 C 151.716 245.362, 151.692 245.037, 149.898 244.468 C 147.275 243.635, 146.207 239.023, 148.359 237.819 C 150.636 236.545, 150.418 234, 148.031 234 C 146.573 234, 146.233 233.546, 146.719 232.250 C 147.283 230.745, 147.148 230.684, 145.757 231.815 C 144.384 232.930, 143.978 232.827, 143.070 231.130 C 141.662 228.500, 141.718 227.717, 143.250 228.613 C 143.938 229.015, 143.653 228.378, 142.618 227.197 C 140.757 225.074, 140.766 225.040, 143.433 224.025 C 146.739 222.768, 147.275 222.746, 146.566 223.894 C 146.016 224.783, 148.613 232, 149.482 232 C 149.732 232, 149.701 231.384, 149.412 230.631 C 149.100 229.819, 149.723 229.044, 150.943 228.725 C 152.075 228.429, 153 228.595, 153 229.094 C 153 229.592, 152.518 230, 151.929 230 C 151.339 230, 151.558 230.701, 152.415 231.557 C 153.629 232.772, 154.360 232.866, 155.736 231.982 C 157.395 230.916, 157.396 230.881, 155.750 231.393 C 154.631 231.741, 154 231.408, 154 230.469 C 154 229.661, 154.413 229, 154.918 229 C 156.970 229, 159 230.297, 159 231.607 C 159 233.059, 161.560 233.556, 162.316 232.250 C 162.554 231.838, 162.438 230.641, 162.056 229.591 C 161.130 227.043, 163.076 220, 164.707 220 C 165.418 220, 166 219.298, 166 218.441 C 166 217.584, 166.453 217.162, 167.007 217.504 C 167.561 217.847, 168.274 217.311, 168.592 216.313 C 169.843 212.386, 172.335 207, 172.902 206.999 C 173.658 206.997, 179 202.433, 179 201.788 C 179 201.525, 176.862 201.860, 174.250 202.533 C 170.553 203.486, 169.549 204.173, 169.721 205.629 C 169.842 206.658, 169.692 206.938, 169.388 206.250 C 169.083 205.562, 168.169 205, 167.358 205 C 166.497 205, 166.179 205.481, 166.595 206.155 C 167.038 206.871, 166.870 207.038, 166.150 206.593 C 164.833 205.778, 157 209.851, 157 211.351 C 157 211.891, 156.696 212.029, 156.324 211.658 C 155.440 210.774, 151 214.958, 151 216.674 C 151 217.403, 150.325 218, 149.500 218 C 147.689 218, 147.491 220.632, 149.250 221.329 C 149.938 221.601, 148.989 221.665, 147.143 221.471 C 145.296 221.277, 144.052 221.385, 144.377 221.711 C 144.703 222.037, 143.800 222.910, 142.371 223.652 C 138.909 225.447, 138.388 225.351, 140.193 223.250 C 141.019 222.287, 142.023 220.825, 142.422 220 C 142.821 219.175, 142.442 219.371, 141.578 220.435 C 140.715 221.500, 139.219 222.437, 138.254 222.518 C 135.312 222.766, 131.946 224.103, 132.402 224.842 C 132.640 225.226, 128.934 225.225, 124.167 224.840 C 111.121 223.786, 96.263 225.144, 88.771 228.074 C 80.021 231.497, 73 235.341, 73 236.709 C 73 237.419, 72.437 237.887, 71.750 237.750 C 71.062 237.612, 70.624 238.096, 70.775 238.824 C 70.926 239.553, 70.639 239.895, 70.138 239.585 C 69.637 239.276, 68.667 239.697, 67.982 240.522 C 66.903 241.821, 67.255 241.958, 70.619 241.549 C 73.879 241.152, 74.180 241.257, 72.500 242.203 C 71.400 242.822, 70.169 243.818, 69.765 244.415 C 69.239 245.192, 69.026 245.193, 69.015 244.417 C 69.007 243.821, 68.302 243.333, 67.449 243.333 C 65.613 243.333, 61.739 248.405, 62.780 249.446 C 63.176 249.842, 62.852 250.017, 62.059 249.833 C 61.267 249.650, 60.428 250.386, 60.194 251.468 C 59.825 253.178, 59.981 253.261, 61.385 252.096 C 62.449 251.212, 63 251.138, 63 251.878 C 63 252.495, 62.550 253, 62 253 C 61.450 253, 61 253.477, 61 254.059 C 61 254.641, 61.495 254.812, 62.100 254.438 C 62.873 253.961, 62.862 254.389, 62.065 255.879 C 61.440 257.046, 61.139 258, 61.395 258 C 61.651 258, 61.473 259.350, 61 261 C 60.433 262.978, 60.498 264, 61.192 264 C 61.915 264, 61.906 264.408, 61.164 265.302 C 60.570 266.018, 60.346 267.608, 60.667 268.835 C 61.035 270.242, 60.593 271.792, 59.470 273.033 C 58.491 274.115, 58.071 275, 58.536 275 C 59.002 275, 58.514 275.635, 57.452 276.411 C 56.391 277.188, 55.180 277.611, 54.761 277.352 C 54.342 277.094, 54 277.359, 54 277.941 C 54 279.623, 56.508 279.175, 59.273 277 C 62.079 274.792, 63 274.529, 63 275.933 C 63 276.446, 62.093 277.153, 60.985 277.505 C 59.877 277.856, 59.229 278.562, 59.544 279.072 C 59.860 279.582, 59.079 280.007, 57.809 280.015 C 56.539 280.024, 54.837 280.450, 54.026 280.963 C 52.343 282.027, 52.006 286.097, 53.500 287.316 C 54.050 287.764, 53.419 287.825, 52.099 287.450 C 50.155 286.899, 49.815 287.077, 50.317 288.385 C 50.723 289.441, 50.404 290, 49.397 290 C 47.740 290, 45 292.313, 45 293.713 C 45 294.184, 43.681 295.348, 42.069 296.300 C 38.963 298.135, 37.544 297.353, 38.667 294.426 C 39.162 293.134, 38.991 292.888, 38.015 293.490 C 37.128 294.039, 36.930 293.923, 37.415 293.138 C 37.813 292.494, 38.445 292.143, 38.819 292.359 C 39.194 292.574, 40.400 292.388, 41.500 291.945 C 43.377 291.190, 43.358 291.136, 41.191 291.070 C 39.894 291.031, 39.157 290.554, 39.510 289.984 C 39.856 289.425, 40.606 289.257, 41.178 289.610 C 41.751 289.964, 43.295 289.001, 44.609 287.471 C 47.548 284.051, 47.599 283.609, 44.887 285.061 C 42.778 286.189, 42.777 286.186, 44.603 283.096 C 45.608 281.393, 46.833 280, 47.324 280 C 47.815 280, 47.929 278.762, 47.578 277.250 C 47.151 275.412, 47.245 274.959, 47.862 275.885 C 49.244 277.960, 54 276.484, 54 273.981 C 54 272.891, 53.550 272, 53 272 C 52.450 272, 52 271.523, 52 270.941 C 52 270.359, 52.411 270.136, 52.914 270.447 C 53.424 270.762, 53.618 269.681, 53.352 267.998 C 53.012 265.836, 53.335 264.809, 54.496 264.363 C 55.387 264.021, 55.878 263.125, 55.589 262.371 C 55.284 261.577, 55.708 261, 56.594 261 C 57.530 261, 58.004 260.281, 57.813 259.154 C 57.641 258.138, 58.127 256.552, 58.893 255.629 C 59.658 254.707, 59.998 253.664, 59.646 253.313 C 59.295 252.962, 57.144 254.575, 54.866 256.899 C 51.918 259.907, 51.033 261.433, 51.797 262.197 C 52.560 262.960, 52.390 264.001, 51.206 265.808 C 50.090 267.512, 49.912 268.471, 50.666 268.722 C 51.495 268.998, 51.498 269.871, 50.676 272.048 C 49.436 275.333, 48.053 275.932, 47.901 273.250 C 47.847 272.288, 47.222 273.338, 46.513 275.584 C 44.705 281.310, 42.202 285.950, 38.839 289.810 C 37.253 291.630, 36.217 293.543, 36.537 294.060 C 36.857 294.577, 36.615 295, 36 295 C 35.385 295, 35.139 295.416, 35.454 295.925 C 36.234 297.187, 33.920 302.068, 32.854 301.410 C 32.384 301.119, 32 301.610, 32 302.500 C 32 303.390, 31.581 303.859, 31.069 303.543 C 30.557 303.226, 29.852 303.430, 29.503 303.995 C 29.153 304.561, 26.533 306.517, 23.680 308.342 C 20.827 310.167, 17.144 313.383, 15.496 315.489 C 13.848 317.595, 11.496 320.428, 10.269 321.785 C 9.042 323.141, 8.324 324.715, 8.673 325.280 C 9.023 325.846, 8.881 326.044, 8.357 325.720 C 7.833 325.397, 6.751 325.545, 5.952 326.051 C 4.956 326.681, 4.892 326.974, 5.750 326.985 C 7.776 327.010, 7.178 329.809, 5 330.500 C 2.533 331.283, 2.407 332.698, 4.750 333.311 C 6.163 333.680, 6.097 333.790, 4.409 333.884 C 2.612 333.984, 2.293 334.692, 2.144 338.904 C 1.996 343.079, 2.472 344.466, 5.352 348.238 C 8.427 352.266, 8.668 353.068, 8.018 357.084 C 7.624 359.513, 6.502 363.879, 5.524 366.786 C 3.455 372.937, 3.915 379.137, 6.665 382.194 C 7.674 383.315, 10.525 385.619, 13 387.313 C 18.556 391.116, 19.243 391.970, 22.975 399.721 C 25.491 404.947, 26.813 406.428, 31.235 408.977 C 34.897 411.087, 37.635 411.950, 40.229 411.811 C 44.038 411.607, 46.825 413.371, 51.364 418.857 C 57.008 425.680, 58.816 426.108, 70.500 423.386 C 80.819 420.982, 83.657 419.503, 86.454 415.073 C 87.839 412.879, 91.447 409.255, 94.473 407.020 C 100.474 402.587, 101.806 399.750, 100.135 394.957 C 99.480 393.078, 99.298 388.274, 99.669 382.632 C 100.070 376.523, 99.891 372.665, 99.141 371.263 C 98.168 369.446, 98.387 368.840, 100.665 367.049 C 102.128 365.898, 104.489 364.726, 105.912 364.444 C 121.054 361.442, 136.231 348.743, 143.631 332.883 C 146.295 327.173, 150.915 323.546, 158.039 321.570 C 161.043 320.737, 166.627 319.147, 170.449 318.036 C 175.906 316.450, 178.162 316.228, 180.949 317.002 C 188.249 319.030, 194.548 318.002, 212 311.933 C 215.575 310.690, 221.166 308.758, 224.424 307.639 C 231.129 305.337, 243.039 297.831, 247.437 293.136 C 249.052 291.411, 250.682 290, 251.058 290 C 251.435 290, 252.045 292.284, 252.416 295.076 C 253.348 302.104, 256.080 308.601, 263.739 322 C 272.838 337.921, 274.832 340.668, 284.563 350.702 C 292.511 358.897, 293.222 359.980, 294.947 366.500 C 297.051 374.453, 300.394 383.426, 304.904 393.228 L 308 399.956 308.100 419.228 C 308.155 429.828, 308.518 439.625, 308.906 441 C 310.101 445.223, 306.514 460.362, 301.388 472.732 C 300.652 474.510, 300.305 476.631, 300.617 477.445 C 300.930 478.259, 300.408 481.267, 299.457 484.129 C 298.128 488.132, 297.869 491.151, 298.338 497.222 C 298.941 505.052, 298.509 506.973, 295.208 511.125 C 294.498 512.019, 294.039 513.144, 294.188 513.625 C 294.631 515.052, 291.301 522.505, 289.585 523.929 C 288.713 524.653, 288 526.512, 288 528.060 C 288 530.249, 287.005 531.590, 283.532 534.085 C 281.074 535.850, 279.287 537.655, 279.559 538.096 C 279.832 538.538, 278.687 539.911, 277.015 541.147 C 273.140 544.012, 263.991 556, 260.719 562.500 C 259.335 565.250, 256.806 569.249, 255.101 571.388 C 253.395 573.526, 252 575.624, 252 576.050 C 252 576.476, 250.248 579.901, 248.107 583.662 C 245.966 587.423, 243.454 593.650, 242.526 597.500 C 241.598 601.350, 239.453 606.975, 237.760 610 C 235.461 614.108, 234.739 616.576, 234.907 619.750 C 235.410 629.195, 235.389 630.678, 234.700 635 C 233.412 643.082, 228.137 658.986, 222.639 671.365 C 219.675 678.039, 216.549 685.627, 215.693 688.227 C 214.837 690.826, 212.963 694.493, 211.528 696.374 C 208.114 700.851, 206.805 705.477, 208.129 708.385 C 209.165 710.658, 208.319 714.925, 204.635 726 C 203.811 728.475, 202.243 733.425, 201.149 737 C 200.056 740.575, 197.991 746.291, 196.560 749.702 C 193.293 757.492, 189.660 771.720, 187.553 784.973 C 186.066 794.324, 186.061 796.512, 187.489 810.844 C 189.271 828.711, 190.290 833.872, 193.725 842.417 C 199.575 856.973, 200.208 860.456, 200.152 877.809 C 200.094 895.721, 199.784 897.107, 192.521 911.888 C 189.944 917.133, 186.803 921.356, 181.695 926.445 C 177.738 930.387, 172.292 937.188, 169.593 941.556 C 162.397 953.204, 154.196 960.878, 142.875 966.557 C 137.719 969.144, 131.690 972.503, 129.477 974.022 C 127.264 975.541, 123.535 977.359, 121.190 978.061 C 116.890 979.350, 112 983.016, 112 984.952 C 112 985.675, 138.864 986, 198.474 986 L 284.949 986 286.381 983.230 C 288.387 979.351, 290.052 969.577, 289.363 965.727 C 289.046 963.952, 287.730 959.057, 286.440 954.849 C 285.151 950.641, 283.810 944.791, 283.461 941.849 C 283.112 938.907, 282.351 934.949, 281.771 933.053 C 280.675 929.476, 280.623 929.015, 279.459 912.450 C 278.770 902.653, 278.830 902.222, 281.876 895.283 C 283.594 891.368, 285 887.752, 285 887.248 C 285 885.003, 293.108 866.703, 295.902 862.643 C 297.602 860.171, 302.482 854.466, 306.747 849.964 C 315.259 840.978, 322.421 830.670, 324.028 825.091 C 326.813 815.428, 329.113 769.135, 327.291 759.433 L 326.339 754.365 330.769 754.615 C 333.205 754.753, 335.464 755.130, 335.788 755.454 C 336.111 755.778, 336.484 759.804, 336.616 764.400 C 336.749 768.996, 337.103 776.412, 337.405 780.879 C 337.812 786.919, 337.639 789.004, 336.726 789.015 C 335.962 789.025, 335.877 789.308, 336.500 789.765 C 337.050 790.169, 337.577 791.400, 337.671 792.500 C 337.765 793.600, 338.319 797.425, 338.901 801 C 339.483 804.575, 339.969 810.061, 339.980 813.191 C 339.991 816.321, 340.457 819.165, 341.016 819.510 C 341.575 819.856, 341.774 820.557, 341.457 821.069 C 341.141 821.581, 341.287 822, 341.782 822 C 343.317 822, 345.874 807.303, 347.522 789 C 347.844 785.425, 348.516 779.868, 349.014 776.651 C 349.676 772.379, 349.518 768.604, 348.426 762.651 C 344.166 739.415, 344.114 734.318, 348.021 723 C 349.982 717.320, 354.372 708.891, 358.700 702.500 C 370.605 684.918, 374.601 678.652, 379.093 670.519 C 382.026 665.210, 387.095 657.694, 390.358 653.818 C 396.868 646.083, 408.528 637.734, 415.373 635.903 C 417.643 635.296, 420.598 634.365, 421.941 633.834 C 423.283 633.303, 429.292 632.636, 435.294 632.351 L 446.207 631.832 450.854 637.089 C 453.409 639.980, 466.300 653.239, 479.500 666.553 C 496.996 684.200, 505.533 692.058, 511 695.545 C 515.125 698.177, 521.214 702.466, 524.531 705.077 C 527.848 707.687, 532.348 710.636, 534.531 711.629 C 536.714 712.622, 539.748 714.275, 541.273 715.302 C 543.798 717.002, 544.001 717.587, 543.542 721.835 C 542.645 730.145, 541.856 737.431, 541.523 740.500 C 541.344 742.150, 540.939 746.028, 540.624 749.118 C 540.309 752.208, 539.604 755.911, 539.058 757.347 C 536.961 762.864, 534.992 784.305, 536.011 790.529 C 536.548 793.813, 536.991 798.781, 536.994 801.568 C 537.006 811.577, 544.433 829.516, 552.419 838.824 C 559.603 847.197, 563.249 862.888, 562.905 883.942 C 562.586 903.392, 560.812 910.961, 553.799 922.796 C 551.748 926.258, 549.644 930.533, 549.124 932.296 C 548.604 934.058, 546.959 938.875, 545.468 943 C 543.290 949.025, 542.733 952.385, 542.633 960.081 C 542.521 968.839, 542.734 969.999, 545.115 973.598 C 546.548 975.763, 549.578 978.822, 551.850 980.396 C 559.956 986.014, 559.024 985.967, 664.250 985.984 C 717.462 985.993, 761 985.826, 761 985.614 C 761 984.354, 757.898 979.628, 755.520 977.265 C 753.989 975.744, 751.954 972.700, 750.998 970.500 C 748.764 965.360, 746.658 963.686, 740.500 962.154 C 737.750 961.470, 732.089 959.177, 727.919 957.058 C 723.750 954.939, 716.674 951.990, 712.194 950.504 C 701.282 946.884, 694.136 941.579, 686.938 931.753 C 683.721 927.361, 680.957 923.456, 680.795 923.076 C 680.633 922.695, 678.450 920.986, 675.944 919.277 C 673.438 917.569, 667.976 912.870, 663.807 908.835 C 656.249 901.522, 655.926 900.972, 652.127 888.929 C 650.412 883.495, 650.763 878, 653.344 869.878 C 654.633 865.820, 656.722 858.900, 657.987 854.500 C 659.252 850.100, 662.964 840.200, 666.235 832.500 C 672.600 817.516, 677.484 803.463, 678.467 797.299 C 680.165 786.656, 680.952 779.457, 681.558 769 C 682.049 760.530, 682.624 757.183, 683.741 756.296 C 685.235 755.109, 687.164 743.251, 687.007 736.221 C 686.966 734.418, 687.588 731.493, 688.389 729.721 C 689.189 727.950, 690.044 724.700, 690.288 722.500 C 690.734 718.476, 688.892 706.351, 687.157 701.895 C 685.312 697.157, 681.096 682.386, 680.013 676.867 C 678.040 666.816, 674.138 657.820, 668.594 650.538 C 665.647 646.667, 662.013 641.064, 660.518 638.086 C 659.023 635.108, 655.298 628.808, 652.241 624.086 C 645.896 614.285, 642.117 606.408, 639.172 596.843 C 633.720 579.136, 624.321 566.401, 593.367 534.782 C 584.365 525.587, 577 517.605, 577 517.045 C 577 516.484, 575.269 514.932, 573.153 513.596 C 565.466 508.744, 557.260 501.174, 556.591 498.318 C 556.228 496.768, 555.320 494.150, 554.573 492.500 C 552.639 488.229, 551.042 480.737, 551.808 479.526 C 552.165 478.962, 552.341 476.025, 552.199 473 C 552.057 469.975, 552.433 466.825, 553.035 466 C 553.858 464.872, 554.036 466.048, 553.751 470.750 C 553.543 474.188, 553.502 477, 553.661 477 C 553.819 477, 554.557 475.762, 555.300 474.250 C 557.210 470.362, 557.435 463.316, 555.732 460.697 C 553.507 457.275, 552.100 449.299, 552.081 440 C 552.071 435.325, 550.924 424.774, 549.532 416.552 C 548.139 408.331, 547 400.620, 547 399.416 C 547 398.213, 548.537 392.487, 550.415 386.693 C 552.293 380.898, 554.586 372.859, 555.511 368.829 C 556.436 364.798, 558.011 359.475, 559.011 357 C 560.012 354.525, 561.350 349.625, 561.984 346.112 C 563.551 337.436, 566.557 330.107, 570.026 326.498 C 573.732 322.642, 580.274 311.211, 589.097 293.171 C 594.138 282.866, 596.442 279.096, 597.303 279.746 C 598.978 281.009, 609.263 283.785, 617 285.061 C 620.575 285.650, 627.100 287.077, 631.500 288.231 C 637.259 289.742, 642.862 290.366, 651.500 290.458 C 662.045 290.571, 663.924 290.856, 667 292.806 C 668.925 294.026, 672.259 295.505, 674.408 296.093 C 678.333 297.167, 680.335 298.912, 687.224 307.264 C 691.422 312.355, 697.119 316.002, 706.263 319.454 C 709.693 320.749, 716.100 323.457, 720.500 325.472 C 731.680 330.592, 737.898 332, 749.338 332 L 759.255 332 771.119 338.250 L 782.984 344.500 782.992 348.860 C 783.003 354.642, 787.929 363.838, 793.646 368.747 C 796.049 370.811, 800.196 374.413, 802.861 376.750 C 806.911 380.301, 808.396 381, 811.894 381 C 814.196 381, 817.920 381.939, 820.169 383.086 C 823.796 384.937, 824.781 385.041, 828.879 384.011 C 834.259 382.659, 836.656 380.758, 838.477 376.401 C 839.969 372.829, 843.508 371.663, 853.168 371.560 C 857.785 371.511, 859.334 371.036, 861.513 369 C 865.518 365.260, 867 361.687, 867 355.772 C 867 349.359, 868.781 346.453, 873.226 345.613 C 881.442 344.060, 886 338.349, 886 329.605 C 886 326.160, 885.480 324.730, 883.718 323.323 C 880.780 320.977, 877 314.810, 877 312.364 C 877 311.318, 878.849 308.226, 881.109 305.490 C 885.094 300.668, 885.199 300.354, 884.582 295.103 C 883.446 285.435, 879.671 280.640, 871.599 278.614 C 870.037 278.222, 868.106 277.248, 867.308 276.451 C 866.510 275.653, 864.942 275, 863.823 275 C 862.704 275, 858.187 272.975, 853.786 270.500 C 847.450 266.937, 844.804 266, 841.076 266 C 833.102 266, 824.744 264.017, 822.264 261.537 C 819.622 258.894, 815.311 257.985, 808.871 258.711 C 804.387 259.217, 804.203 259.121, 798.562 253.363 C 795.403 250.138, 791.650 245.475, 790.224 243 C 785.258 234.388, 781.845 229.930, 778.524 227.722 C 776.686 226.500, 771.654 222.982, 767.341 219.904 C 757.253 212.704, 754.884 211.521, 745.789 209.139 C 741.654 208.056, 735.847 205.830, 732.885 204.193 C 724.717 199.679, 716.032 198.354, 704.207 199.818 C 698.868 200.479, 693.251 201.015, 691.725 201.010 C 687.836 200.996, 678.668 197.623, 673.152 194.175 C 670.593 192.577, 666.025 190.258, 663 189.022 C 658.205 187.063, 657.203 186.152, 655.184 181.908 C 652.176 175.586, 642.619 166.175, 632.248 159.323 C 623.854 153.778, 606.442 145, 603.834 145 C 603.045 145, 601.972 144.610, 601.450 144.134 C 600.927 143.657, 597.511 142.479, 593.857 141.514 C 588.265 140.038, 584.368 139.845, 569.207 140.292 L 551.199 140.824 544.849 135.393 C 533.549 125.727, 520.770 121.175, 498.598 118.920 C 488.161 117.858, 484.567 116.282, 486.517 113.622 C 491.016 107.485, 491.356 106.546, 491.758 99.166 C 491.988 94.950, 491.709 89.476, 491.139 87.002 C 490.337 83.527, 490.412 81.880, 491.469 79.761 C 492.222 78.252, 492.514 76.818, 492.119 76.573 C 490.682 75.685, 491.950 59.713, 493.602 57.887 C 494.652 56.727, 494.940 55.366, 494.462 53.822 C 493.147 49.568, 488.734 42.538, 485.347 39.301 C 483.506 37.542, 481.998 35.292, 481.995 34.301 C 481.992 33.310, 480.244 31.018, 478.110 29.207 C 474.553 26.188, 474.231 25.496, 474.231 20.873 C 474.231 15.210, 472.617 12.542, 470.683 15.008 C 469.414 16.625, 466.175 16.562, 461.750 14.832 C 459.822 14.079, 459 13.046, 459 11.379 C 459 8.731, 457.822 8.305, 456.132 10.341 C 455.514 11.086, 452.763 11.762, 449.948 11.862 C 447.159 11.960, 444.567 12.085, 444.188 12.139 C 441.697 12.493, 440 11.766, 440 10.345 C 440 8.815, 439.859 8.817, 438.140 10.373 C 436.619 11.750, 435.753 11.857, 433.390 10.962 C 431.800 10.360, 429.600 9.030, 428.500 8.008 C 425.981 5.665, 421 4.308, 421 5.963 M 401.755 75.500 C 402.291 78.303, 403.493 78.764, 404.362 76.500 C 404.678 75.675, 404.389 74.993, 403.719 74.985 C 402.948 74.975, 403.051 74.613, 404 74 C 405.229 73.206, 405.118 73.028, 403.389 73.015 C 401.673 73.003, 401.367 73.469, 401.755 75.500 M 397.915 74.500 C 397.799 75.050, 397.619 76.175, 397.515 77 C 397.029 80.869, 395.665 85, 394.875 85 C 394.394 85, 394 84.564, 394 84.031 C 394 83.499, 393.400 83.293, 392.667 83.574 C 391.933 83.856, 391.333 84.735, 391.333 85.527 C 391.333 86.563, 391.683 86.678, 392.578 85.936 C 393.435 85.224, 394.024 85.229, 394.470 85.951 C 395.463 87.558, 393.999 89.206, 392.149 88.566 C 390.737 88.077, 390.751 88.191, 392.250 89.358 C 393.212 90.107, 394 91.458, 394 92.360 C 394 93.396, 394.828 93.997, 396.250 93.992 C 398.866 93.983, 401.655 89.255, 400.012 87.612 C 399.361 86.961, 399.935 86.026, 401.693 84.873 L 404.362 83.122 401.643 81.883 C 400.067 81.165, 399.136 80.088, 399.430 79.323 C 399.708 78.597, 399.529 76.989, 399.032 75.751 C 398.534 74.513, 398.032 73.950, 397.915 74.500 M 467.333 81.456 C 467.333 82.257, 467.716 82.676, 468.183 82.387 C 468.650 82.098, 468.774 81.443, 468.457 80.931 C 467.649 79.623, 467.333 79.770, 467.333 81.456 M 438.810 88.524 C 438.144 89.189, 439.018 93.893, 439.910 94.445 C 440.280 94.673, 440.402 93.316, 440.182 91.430 C 439.765 87.857, 439.672 87.661, 438.810 88.524 M 386.415 106.138 C 386.092 106.660, 386.253 107.630, 386.773 108.294 C 387.293 108.957, 388.006 111.075, 388.358 113 C 388.808 115.464, 388.706 116.056, 388.014 115 C 387.435 114.117, 387.024 113.985, 387.015 114.679 C 387.007 115.327, 387.599 116.456, 388.330 117.188 C 389.062 117.919, 389.488 119.035, 389.278 119.667 C 388.455 122.136, 391.120 121.974, 393.496 119.410 C 396.284 116.401, 396.540 115.452, 394.845 114.405 C 394.072 113.926, 393.955 114.154, 394.492 115.095 C 395.069 116.106, 394.976 116.210, 394.162 115.465 C 393.539 114.896, 392.882 113.076, 392.701 111.420 C 392.519 109.764, 392.070 107.922, 391.701 107.325 C 390.765 105.810, 387.123 104.992, 386.415 106.138 M 476.158 108 C 476.158 109.375, 476.385 109.938, 476.662 109.250 C 476.940 108.563, 476.940 107.438, 476.662 106.750 C 476.385 106.063, 476.158 106.625, 476.158 108 M 427 113.853 C 427 114.572, 426.016 114.861, 424.500 114.586 C 421.478 114.038, 421.401 114.441, 424 117.230 C 426.370 119.774, 426.592 121.164, 424.500 120.362 C 423.675 120.045, 423 119.358, 423 118.834 C 423 118.310, 422.550 118.160, 422 118.500 C 420.842 119.216, 420.635 121.103, 421.750 120.788 C 422.163 120.671, 423.567 121.166, 424.871 121.887 C 426.278 122.666, 426.965 122.753, 426.562 122.100 C 426.179 121.480, 426.560 121, 427.435 121 C 428.640 121, 428.883 120.184, 428.522 117.361 C 428.075 113.870, 427 111.392, 427 113.853 M 371 118.138 C 371 118.730, 370.421 118.992, 369.714 118.721 C 369.007 118.449, 368.379 118.964, 368.319 119.864 C 368.258 120.764, 367.955 122.554, 367.644 123.842 C 367.205 125.665, 367.421 126.052, 368.622 125.592 C 369.470 125.266, 370.524 125, 370.965 125 C 371.674 125, 372.581 122.972, 373.504 119.319 C 373.668 118.670, 373.172 117.896, 372.401 117.601 C 371.631 117.305, 371 117.547, 371 118.138 M 364 120 C 363.175 120.533, 362.950 120.969, 363.500 120.969 C 364.050 120.969, 365.175 120.533, 366 120 C 366.825 119.467, 367.050 119.031, 366.500 119.031 C 365.950 119.031, 364.825 119.467, 364 120 M 348.952 122.450 C 348.428 122.973, 348 124.040, 348 124.822 C 348 125.973, 348.286 126.007, 349.500 125 C 350.709 123.996, 351.003 124.021, 351.015 125.128 C 351.028 126.246, 351.199 126.234, 351.939 125.064 C 352.692 123.874, 353.117 123.853, 354.424 124.937 C 355.526 125.851, 356 125.898, 356 125.091 C 356 124.456, 355.287 123.664, 354.416 123.329 C 353.229 122.874, 353.142 122.530, 354.069 121.957 C 354.806 121.502, 354.214 121.255, 352.605 121.346 C 351.119 121.431, 349.475 121.927, 348.952 122.450 M 374.079 124.583 C 374.127 125.748, 374.364 125.985, 374.683 125.188 C 374.972 124.466, 374.936 123.603, 374.604 123.271 C 374.272 122.939, 374.036 123.529, 374.079 124.583 M 337.475 126.040 C 337.054 126.722, 337.808 126.846, 339.666 126.399 C 343.498 125.479, 343.860 125, 340.726 125 C 339.291 125, 337.829 125.468, 337.475 126.040 M 345 126 C 345 126.550, 345.477 127, 346.059 127 C 346.641 127, 346.840 126.550, 346.500 126 C 346.160 125.450, 345.684 125, 345.441 125 C 345.198 125, 345 125.450, 345 126 M 362 125.393 C 362 125.609, 362.698 126.054, 363.552 126.382 C 364.442 126.723, 364.843 126.555, 364.493 125.989 C 363.906 125.038, 362 124.583, 362 125.393 M 333.705 127.674 C 334.190 128.937, 333.941 129.191, 332.689 128.711 C 331.656 128.315, 330.686 128.721, 330.118 129.787 C 329.331 131.264, 329.741 131.507, 333.103 131.549 C 337.193 131.600, 337.815 130.657, 335.608 127.750 C 333.923 125.530, 332.866 125.488, 333.705 127.674 M 377.297 127.893 C 376.310 129.476, 376.380 129.932, 377.690 130.435 C 379.877 131.274, 380.487 130.406, 379.407 127.991 C 378.516 126, 378.478 125.999, 377.297 127.893 M 339.459 129.067 C 338.433 130.727, 339.354 130.957, 340.789 129.399 C 341.499 128.630, 341.638 128, 341.098 128 C 340.559 128, 339.821 128.480, 339.459 129.067 M 348.500 130 C 348.840 130.550, 349.316 131, 349.559 131 C 349.802 131, 350 130.550, 350 130 C 350 129.450, 349.523 129, 348.941 129 C 348.359 129, 348.160 129.450, 348.500 130 M 371 129.378 C 371 129.585, 371.685 130.324, 372.523 131.019 C 373.796 132.076, 373.943 132.014, 373.416 130.641 C 372.878 129.240, 371 128.257, 371 129.378 M 366.483 132.026 C 366.679 134.684, 367.548 135.349, 367.727 132.977 C 367.807 131.911, 367.528 130.826, 367.107 130.566 C 366.686 130.306, 366.405 130.963, 366.483 132.026 M 313.431 132.112 C 312.743 133.224, 314.617 134.969, 316.500 134.969 C 317.050 134.969, 316.825 134.526, 316 133.985 C 314.667 133.109, 314.667 132.891, 316 132.015 C 317.294 131.166, 317.268 131.029, 315.809 131.015 C 314.879 131.007, 313.809 131.500, 313.431 132.112 M 318.564 133.293 C 318.940 134.279, 319.499 134.834, 319.807 134.526 C 320.115 134.219, 319.808 133.412, 319.124 132.733 C 318.136 131.753, 318.022 131.868, 318.564 133.293 M 331 133 C 331 133.550, 331.450 134, 332 134 C 332.550 134, 333 133.550, 333 133 C 333 132.450, 332.550 132, 332 132 C 331.450 132, 331 132.450, 331 133 M 377.572 132.750 C 378.069 133.162, 378.813 133.950, 379.223 134.500 C 379.649 135.071, 379.976 134.749, 379.985 133.750 C 379.993 132.777, 379.260 132, 378.333 132 C 377.417 132, 377.074 132.338, 377.572 132.750 M 298.909 139.793 C 298.064 140.780, 296.978 142.242, 296.495 143.043 C 295.732 144.307, 295.847 144.312, 297.363 143.082 C 298.963 141.783, 301.490 138, 300.757 138 C 300.585 138, 299.754 138.807, 298.909 139.793 M 300.564 141.707 C 300.022 143.132, 300.136 143.247, 301.124 142.267 C 301.808 141.588, 302.115 140.781, 301.807 140.474 C 301.499 140.166, 300.940 140.721, 300.564 141.707 M 321 141 C 320.099 141.582, 319.975 141.975, 320.691 141.985 C 321.346 141.993, 322.160 141.550, 322.500 141 C 323.267 139.758, 322.921 139.758, 321 141 M 539.733 144.124 C 540.412 144.808, 541.219 145.115, 541.526 144.807 C 541.834 144.499, 541.279 143.940, 540.293 143.564 C 538.868 143.022, 538.753 143.136, 539.733 144.124 M 543.079 145.583 C 543.127 146.748, 543.364 146.985, 543.683 146.188 C 543.972 145.466, 543.936 144.603, 543.604 144.271 C 543.272 143.939, 543.036 144.529, 543.079 145.583 M 293 146 C 292.099 146.582, 291.975 146.975, 292.691 146.985 C 293.346 146.993, 294.160 146.550, 294.500 146 C 295.267 144.758, 294.921 144.758, 293 146 M 324 146.167 C 324 146.625, 324.423 147, 324.941 147 C 325.459 147, 326.114 146.625, 326.397 146.167 C 326.680 145.708, 326.257 145.333, 325.456 145.333 C 324.655 145.333, 324 145.708, 324 146.167 M 319.158 148 C 319.158 149.375, 319.385 149.938, 319.662 149.250 C 319.940 148.563, 319.940 147.438, 319.662 146.750 C 319.385 146.063, 319.158 146.625, 319.158 148 M 373.764 146.570 C 373.419 146.914, 373.380 147.827, 373.676 148.598 C 373.972 149.369, 373.716 150, 373.107 150 C 372.498 150, 372 151.602, 372 153.559 C 372 155.770, 372.394 156.874, 373.041 156.475 C 373.613 156.121, 373.790 154.913, 373.434 153.791 C 372.945 152.252, 373.120 151.943, 374.143 152.535 C 374.889 152.967, 375.166 152.952, 374.759 152.502 C 374.351 152.052, 374.499 151.104, 375.088 150.394 C 376.200 149.054, 374.935 145.399, 373.764 146.570 M 291.613 149.183 C 291.902 149.650, 292.557 149.774, 293.069 149.457 C 294.377 148.649, 294.230 148.333, 292.544 148.333 C 291.743 148.333, 291.324 148.716, 291.613 149.183 M 289.279 151.285 C 289.743 152.493, 289.472 152.738, 288.199 152.262 C 286.720 151.708, 286.677 151.843, 287.863 153.302 C 288.613 154.224, 289.626 154.731, 290.113 154.430 C 291.378 153.648, 291.209 151.247, 289.830 150.395 C 289.051 149.913, 288.867 150.211, 289.279 151.285 M 421.408 151.378 C 421.091 152.206, 420.982 153.670, 421.168 154.633 C 421.434 156.016, 421.758 155.826, 422.715 153.727 C 423.473 152.062, 423.563 150.848, 422.955 150.472 C 422.422 150.143, 421.726 150.550, 421.408 151.378 M 417 152.500 C 417 153.325, 417.450 154, 418 154 C 418.550 154, 419 153.325, 419 152.500 C 419 151.675, 418.550 151, 418 151 C 417.450 151, 417 151.675, 417 152.500 M 425 153.559 C 425 154.416, 425.450 154.840, 426 154.500 C 426.550 154.160, 427 153.459, 427 152.941 C 427 152.423, 426.550 152, 426 152 C 425.450 152, 425 152.702, 425 153.559 M 541 154 C 540.099 154.582, 539.975 154.975, 540.691 154.985 C 541.346 154.993, 542.160 154.550, 542.500 154 C 543.267 152.758, 542.921 152.758, 541 154 M 286 158 C 286 158.550, 286.477 159, 287.059 159 C 287.641 159, 287.840 158.550, 287.500 158 C 287.160 157.450, 286.684 157, 286.441 157 C 286.198 157, 286 157.450, 286 158 M 303.500 158 C 303.160 158.550, 303.359 159, 303.941 159 C 304.523 159, 305 158.550, 305 158 C 305 157.450, 304.802 157, 304.559 157 C 304.316 157, 303.840 157.450, 303.500 158 M 236 161.229 C 236 161.983, 236.406 163.028, 236.903 163.550 C 237.400 164.072, 237.962 165.276, 238.153 166.224 C 238.418 167.540, 238.855 167.699, 240 166.898 C 241.128 166.108, 241.190 165.722, 240.250 165.341 C 239.563 165.062, 239 164.389, 239 163.845 C 239 163.302, 238.325 162.182, 237.500 161.357 C 236.292 160.149, 236 160.124, 236 161.229 M 231.976 162.954 C 232.578 164.079, 233.505 165, 234.035 165 C 235.672 165, 235.104 163.546, 232.940 162.195 C 231.038 161.007, 230.964 161.065, 231.976 162.954 M 362.684 162.382 C 362.308 163.362, 362.029 164.914, 362.063 165.832 C 362.105 166.937, 362.453 166.685, 363.092 165.086 C 363.623 163.758, 363.902 162.206, 363.712 161.636 C 363.522 161.067, 363.059 161.403, 362.684 162.382 M 242.507 162.989 C 242.157 163.555, 242.558 163.723, 243.448 163.382 C 245.180 162.717, 245.497 162, 244.059 162 C 243.541 162, 242.843 162.445, 242.507 162.989 M 364.459 165.067 C 364.096 165.653, 364.014 166.348, 364.276 166.610 C 364.538 166.872, 365.019 166.392, 365.345 165.543 C 366.021 163.781, 365.445 163.471, 364.459 165.067 M 616.507 165.989 C 616.157 166.555, 616.558 166.723, 617.448 166.382 C 619.180 165.717, 619.497 165, 618.059 165 C 617.541 165, 616.843 165.445, 616.507 165.989 M 210.554 171.913 C 210.184 172.511, 210.385 173, 211 173 C 211.615 173, 211.800 173.563, 211.412 174.250 C 210.848 175.250, 210.976 175.250, 212.053 174.250 C 213.023 173.350, 213.096 172.696, 212.313 171.913 C 211.530 171.130, 211.038 171.130, 210.554 171.913 M 214 172 C 214 172.550, 214.675 173, 215.500 173 C 216.325 173, 217 172.550, 217 172 C 217 171.450, 216.325 171, 215.500 171 C 214.675 171, 214 171.450, 214 172 M 214 175 C 214 175.550, 213.352 176, 212.559 176 C 210.614 176, 209.686 177.688, 211.138 178.585 C 211.869 179.037, 212.041 178.876, 211.595 178.155 C 210.781 176.836, 211.150 176.737, 213.502 177.639 C 214.831 178.149, 214.898 178.449, 213.834 179.124 C 212.924 179.701, 212.879 179.974, 213.691 179.985 C 215.304 180.005, 216.267 178.283, 215.060 177.537 C 214.525 177.206, 214.341 176.275, 214.651 175.468 C 214.960 174.661, 214.941 174, 214.607 174 C 214.273 174, 214 174.450, 214 175 M 198.872 176.750 C 197.629 178.336, 197.664 178.371, 199.250 177.128 C 200.916 175.821, 201.445 175, 200.622 175 C 200.415 175, 199.627 175.787, 198.872 176.750 M 218.670 176.417 C 218.371 177.197, 218.722 178.063, 219.450 178.342 C 220.354 178.689, 220.614 178.239, 220.270 176.925 C 219.669 174.627, 219.391 174.539, 218.670 176.417 M 221.813 176.683 C 222.534 176.972, 223.397 176.936, 223.729 176.604 C 224.061 176.272, 223.471 176.036, 222.417 176.079 C 221.252 176.127, 221.015 176.364, 221.813 176.683 M 222 179 C 222 179.550, 222.477 180, 223.059 180 C 223.641 180, 223.840 179.550, 223.500 179 C 223.160 178.450, 222.684 178, 222.441 178 C 222.198 178, 222 178.450, 222 179 M 208.730 179.643 C 208.444 180.114, 208.838 181.080, 209.605 181.789 C 211.151 183.218, 211.447 182.253, 210.110 180.143 C 209.637 179.397, 209.016 179.172, 208.730 179.643 M 381.275 180.750 C 380.380 183.112, 378.380 185.047, 377.619 184.286 C 377.279 183.945, 377 184.495, 377 185.508 C 377 187.160, 377.256 187.108, 379.500 185 C 380.875 183.708, 382 182.092, 382 181.409 C 382 180.726, 382.563 179.940, 383.250 179.662 C 384.229 179.267, 384.222 179.141, 383.219 179.079 C 382.514 179.036, 381.639 179.787, 381.275 180.750 M 192.405 182.250 L 190.500 184.500 192.750 182.595 C 194.864 180.805, 195.455 180, 194.655 180 C 194.465 180, 193.453 181.012, 192.405 182.250 M 231.571 181.571 C 230.707 182.436, 230 183.346, 230 183.594 C 230 183.953, 233.808 181.834, 235.917 180.303 C 236.146 180.136, 235.615 180, 234.738 180 C 233.861 180, 232.436 180.707, 231.571 181.571 M 632.333 180.730 C 632.715 181.348, 634.934 183.330, 637.264 185.134 C 640.127 187.351, 640.852 187.664, 639.500 186.099 C 637.235 183.477, 631.269 179.008, 632.333 180.730 M 212 182.713 C 212 183.421, 212.450 184, 213 184 C 213.550 184, 214 183.564, 214 183.031 C 214 182.499, 214.749 182.350, 215.664 182.701 C 216.739 183.114, 217.086 182.948, 216.644 182.234 C 215.714 180.728, 212 181.111, 212 182.713 M 236.115 182.393 C 234.803 183.120, 234.128 183.947, 234.615 184.230 C 235.102 184.513, 236.366 183.902, 237.425 182.872 C 239.676 180.683, 239.389 180.578, 236.115 182.393 M 243.208 183.057 C 244.267 183.674, 244.682 184.708, 244.299 185.776 C 243.633 187.635, 243.794 187.522, 246.033 184.558 C 246.840 183.490, 246.969 182.935, 246.319 183.324 C 245.670 183.714, 244.856 183.575, 244.510 183.016 C 244.165 182.457, 243.346 182.014, 242.691 182.030 C 242.036 182.047, 242.269 182.509, 243.208 183.057 M 214 185.090 C 214 185.656, 213.550 185.840, 213 185.500 C 211.524 184.588, 211.785 185.577, 213.367 186.890 C 214.402 187.749, 215.016 187.685, 215.893 186.629 C 216.791 185.547, 216.709 185.102, 215.526 184.648 C 214.686 184.326, 214 184.525, 214 185.090 M 614 185 C 614 185.550, 614.477 186, 615.059 186 C 615.641 186, 615.840 185.550, 615.500 185 C 615.160 184.450, 614.684 184, 614.441 184 C 614.198 184, 614 184.450, 614 185 M 210.609 187.423 C 210.909 188.205, 211.882 189.125, 212.771 189.466 C 214.099 189.975, 214.058 189.721, 212.539 188.043 C 210.361 185.636, 209.862 185.476, 210.609 187.423 M 235.813 186.683 C 236.534 186.972, 237.397 186.936, 237.729 186.604 C 238.061 186.272, 237.471 186.036, 236.417 186.079 C 235.252 186.127, 235.015 186.364, 235.813 186.683 M 375.733 188.124 C 376.412 188.808, 377.219 189.115, 377.526 188.807 C 377.834 188.499, 377.279 187.940, 376.293 187.564 C 374.868 187.022, 374.753 187.136, 375.733 188.124 M 222 189 C 222 189.550, 222.477 190, 223.059 190 C 223.641 190, 223.840 189.550, 223.500 189 C 223.160 188.450, 222.684 188, 222.441 188 C 222.198 188, 222 188.450, 222 189 M 241.079 190.917 C 241.126 192.456, 241.382 192.894, 241.713 192 C 242.019 191.175, 242.651 190.012, 243.118 189.417 C 243.646 188.744, 243.406 188.333, 242.484 188.333 C 241.535 188.333, 241.028 189.264, 241.079 190.917 M 615 189 C 615 189.550, 615.477 190, 616.059 190 C 616.641 190, 616.840 189.550, 616.500 189 C 616.160 188.450, 615.684 188, 615.441 188 C 615.198 188, 615 188.450, 615 189 M 232.638 190.500 C 232.955 191.325, 233.391 192, 233.607 192 C 233.823 192, 234 191.325, 234 190.500 C 234 189.675, 233.564 189, 233.031 189 C 232.499 189, 232.322 189.675, 232.638 190.500 M 226.710 192 C 226.423 193.100, 226.354 194, 226.558 194 C 226.763 194, 227.411 193.100, 228 192 C 228.591 190.895, 228.659 190, 228.152 190 C 227.647 190, 226.998 190.900, 226.710 192 M 225 200 C 224.099 200.582, 223.975 200.975, 224.691 200.985 C 225.346 200.993, 226.160 200.550, 226.500 200 C 227.267 198.758, 226.921 198.758, 225 200 M 228.565 200.895 C 228.260 201.388, 228.609 202.020, 229.339 202.300 C 230.069 202.580, 230.667 202.177, 230.667 201.405 C 230.667 199.830, 229.411 199.526, 228.565 200.895 M 227 204.786 C 227 205.218, 227.867 205.571, 228.927 205.571 C 229.986 205.571, 230.635 205.218, 230.368 204.786 C 230.100 204.354, 229.234 204, 228.441 204 C 227.648 204, 227 204.354, 227 204.786 M 174.183 207.217 C 173.532 207.868, 173 209.085, 173 209.923 C 173 210.968, 173.502 210.728, 174.602 209.158 C 176.357 206.653, 176.071 205.329, 174.183 207.217 M 227.500 209 C 227.160 209.550, 227.359 210, 227.941 210 C 228.523 210, 229 209.550, 229 209 C 229 208.450, 228.802 208, 228.559 208 C 228.316 208, 227.840 208.450, 227.500 209 M 177 213.544 C 177 215.078, 177.338 215.926, 177.750 215.428 C 178.162 214.931, 178.859 214.253, 179.297 213.923 C 179.736 213.593, 179.398 212.746, 178.547 212.039 C 177.214 210.933, 177 211.140, 177 213.544 M 171.250 212.720 C 169.830 213.227, 169.528 216, 170.893 216 C 171.735 216, 173.362 212.967, 172.774 212.494 C 172.623 212.373, 171.938 212.475, 171.250 212.720 M 166.500 215 C 166.160 215.550, 166.359 216, 166.941 216 C 167.523 216, 168 215.550, 168 215 C 168 214.450, 167.802 214, 167.559 214 C 167.316 214, 166.840 214.450, 166.500 215 M 666 215 C 666 215.550, 666.477 216, 667.059 216 C 667.641 216, 667.840 215.550, 667.500 215 C 667.160 214.450, 666.684 214, 666.441 214 C 666.198 214, 666 214.450, 666 215 M 180.079 222.583 C 180.127 223.748, 180.364 223.985, 180.683 223.188 C 180.972 222.466, 180.936 221.603, 180.604 221.271 C 180.272 220.939, 180.036 221.529, 180.079 222.583 M 136.176 223.891 C 135.171 224.512, 135.210 224.929, 136.364 225.887 C 137.982 227.230, 139.271 226.057, 138.158 224.255 C 137.761 223.613, 136.887 223.452, 136.176 223.891 M 144.392 227.887 C 144.475 230.130, 144.798 230.576, 145.762 229.779 C 146.764 228.951, 146.770 228.400, 145.795 227.117 C 145.119 226.228, 144.503 225.377, 144.425 225.226 C 144.348 225.075, 144.333 226.272, 144.392 227.887 M 139.638 227.500 C 139.322 228.325, 139.499 229, 140.031 229 C 140.564 229, 141 228.325, 141 227.500 C 141 226.675, 140.823 226, 140.607 226 C 140.391 226, 139.955 226.675, 139.638 227.500 M 661.079 227.583 C 661.127 228.748, 661.364 228.985, 661.683 228.188 C 661.972 227.466, 661.936 226.603, 661.604 226.271 C 661.272 225.939, 661.036 226.529, 661.079 227.583 M 157 228 C 157 228.550, 157.477 229, 158.059 229 C 158.641 229, 158.840 228.550, 158.500 228 C 158.160 227.450, 157.684 227, 157.441 227 C 157.198 227, 157 227.450, 157 228 M 164 229 C 164 229.550, 164.450 230, 165 230 C 165.550 230, 166 229.550, 166 229 C 166 228.450, 165.550 228, 165 228 C 164.450 228, 164 228.450, 164 229 M 188.500 229 C 188.160 229.550, 188.359 230, 188.941 230 C 189.523 230, 190 229.550, 190 229 C 190 228.450, 189.802 228, 189.559 228 C 189.316 228, 188.840 228.450, 188.500 229 M 675.500 230.474 C 677.700 231.829, 679.950 232.949, 680.500 232.964 C 681.050 232.978, 679.700 231.881, 677.500 230.526 C 675.300 229.171, 673.050 228.051, 672.500 228.036 C 671.950 228.022, 673.300 229.119, 675.500 230.474 M 177.416 230.641 C 177.946 232.024, 177.802 232.080, 176.500 231 C 175.193 229.915, 175.055 229.980, 175.606 231.416 C 175.977 232.383, 176.884 232.875, 177.711 232.557 C 178.510 232.251, 179.338 232, 179.550 232 C 179.763 232, 179.678 231.325, 179.362 230.500 C 179.045 229.675, 178.336 229, 177.786 229 C 177.236 229, 177.069 229.739, 177.416 230.641 M 180.710 233 C 180.423 234.100, 180.595 235, 181.094 235 C 181.592 235, 182 234.100, 182 233 C 182 231.900, 181.827 231, 181.617 231 C 181.406 231, 180.998 231.900, 180.710 233 M 183.427 234.790 C 183.603 236.600, 184.101 238.400, 184.533 238.790 C 184.965 239.181, 184.995 238.600, 184.600 237.500 C 184.082 236.057, 184.186 235.802, 184.974 236.583 C 186.216 237.814, 185.258 241.278, 183.907 240.442 C 183.421 240.142, 183.270 240.539, 183.571 241.326 C 184.010 242.468, 184.609 242.529, 186.552 241.628 C 189.453 240.283, 189.562 239.590, 187.250 237.162 C 186.287 236.151, 184.962 234.464, 184.304 233.412 C 183.249 231.727, 183.145 231.891, 183.427 234.790 M 87.507 233.989 C 87.157 234.555, 87.558 234.723, 88.448 234.382 C 90.180 233.717, 90.497 233, 89.059 233 C 88.541 233, 87.843 233.445, 87.507 233.989 M 76 235.383 C 76 235.594, 76.901 236.002, 78.001 236.290 C 79.102 236.578, 79.751 236.405, 79.442 235.907 C 78.904 235.036, 76 234.594, 76 235.383 M 82.500 236 C 82.160 236.550, 82.332 237, 82.882 237 C 83.432 237, 84.160 236.550, 84.500 236 C 84.840 235.450, 84.668 235, 84.118 235 C 83.568 235, 82.840 235.450, 82.500 236 M 170.750 237.662 C 171.438 237.940, 172.563 237.940, 173.250 237.662 C 173.938 237.385, 173.375 237.158, 172 237.158 C 170.625 237.158, 170.063 237.385, 170.750 237.662 M 161 240.059 C 161 240.641, 161.450 240.840, 162 240.500 C 162.550 240.160, 163 239.684, 163 239.441 C 163 239.198, 162.550 239, 162 239 C 161.450 239, 161 239.477, 161 240.059 M 164.500 242 C 164.160 242.550, 164.332 243, 164.882 243 C 165.432 243, 166.160 242.550, 166.500 242 C 166.840 241.450, 166.668 241, 166.118 241 C 165.568 241, 164.840 241.450, 164.500 242 M 73.585 243.891 C 72.532 244.304, 71.559 245.398, 71.423 246.321 C 71.096 248.551, 71.458 248.451, 74.409 245.500 C 76.998 242.911, 76.845 242.613, 73.585 243.891 M 279.500 244 C 279.160 244.550, 279.359 245, 279.941 245 C 280.523 245, 281 244.550, 281 244 C 281 243.450, 280.802 243, 280.559 243 C 280.316 243, 279.840 243.450, 279.500 244 M 66.667 245.414 C 67.183 246.883, 67.009 247.136, 65.920 246.504 C 65.139 246.050, 64.849 246.063, 65.276 246.532 C 66.508 247.887, 70 248.105, 70 246.827 C 70 246.189, 69.707 245.960, 69.349 246.318 C 68.991 246.676, 68.090 246.188, 67.346 245.234 C 66.089 243.621, 66.042 243.633, 66.667 245.414 M 284 246.059 C 284 246.641, 284.450 246.840, 285 246.500 C 285.550 246.160, 286 245.684, 286 245.441 C 286 245.198, 285.550 245, 285 245 C 284.450 245, 284 245.477, 284 246.059 M 171.813 246.683 C 172.534 246.972, 173.397 246.936, 173.729 246.604 C 174.061 246.272, 173.471 246.036, 172.417 246.079 C 171.252 246.127, 171.015 246.364, 171.813 246.683 M 278 247.059 C 278 247.641, 278.450 247.840, 279 247.500 C 279.550 247.160, 280 246.684, 280 246.441 C 280 246.198, 279.550 246, 279 246 C 278.450 246, 278 246.477, 278 247.059 M 64.813 252.683 C 65.534 252.972, 66.397 252.936, 66.729 252.604 C 67.061 252.272, 66.471 252.036, 65.417 252.079 C 64.252 252.127, 64.015 252.364, 64.813 252.683 M 59.345 256.543 C 59.019 257.392, 58.976 258.310, 59.249 258.583 C 59.523 258.856, 59.986 258.161, 60.279 257.040 C 60.903 254.657, 60.210 254.289, 59.345 256.543 M 53.964 259.164 C 52.819 261.397, 52.846 261.424, 54.574 259.774 C 55.568 258.824, 56.107 257.773, 55.771 257.438 C 55.436 257.103, 54.623 257.880, 53.964 259.164 M 49.161 265.547 C 47.747 268.650, 47.664 271, 48.969 271 C 49.501 271, 49.677 270.322, 49.359 269.492 C 49.040 268.663, 49.515 266.863, 50.413 265.492 C 51.311 264.122, 51.658 263, 51.184 263 C 50.709 263, 49.799 264.146, 49.161 265.547 M 55.500 273 C 55.160 273.550, 55.359 274, 55.941 274 C 56.523 274, 57 273.550, 57 273 C 57 272.450, 56.802 272, 56.559 272 C 56.316 272, 55.840 272.450, 55.500 273 M 44.980 288.524 C 42.961 290.957, 44.644 291.410, 47.122 289.101 C 48.854 287.487, 49.014 287, 47.811 287 C 46.950 287, 45.676 287.686, 44.980 288.524 M 63.018 296.740 C 59.756 298.020, 58.678 299.998, 59.846 302.561 C 60.457 303.903, 60.556 305, 60.065 305 C 59.575 305, 59.993 306.685, 60.995 308.744 C 61.997 310.804, 62.555 312.941, 62.236 313.494 C 61.917 314.047, 62.602 313.671, 63.759 312.658 C 65.825 310.847, 65.853 310.856, 65.419 313.158 C 65.177 314.446, 65.245 314.938, 65.572 314.250 C 66.421 312.466, 69.347 312.655, 68.658 314.449 C 68.280 315.434, 68.582 315.714, 69.602 315.323 C 70.771 314.874, 70.966 315.288, 70.487 317.198 C 70.078 318.827, 70.411 320.097, 71.483 320.986 C 72.763 322.049, 72.828 322.493, 71.797 323.146 C 70.849 323.748, 70.826 323.973, 71.715 323.985 C 72.383 323.993, 73.395 323.130, 73.964 322.067 C 74.804 320.497, 74.623 320.015, 72.999 319.500 C 71.900 319.151, 71 318.460, 71 317.964 C 71 317.468, 71.563 317.274, 72.250 317.532 C 72.938 317.790, 74.042 316.828, 74.705 315.395 C 75.803 313.024, 75.735 312.836, 73.954 313.302 C 72.878 313.583, 72.249 313.405, 72.558 312.907 C 72.866 312.408, 72.416 312, 71.559 312 C 70.702 312, 69.986 311.212, 69.968 310.250 C 69.939 308.667, 69.797 308.685, 68.468 310.441 C 67.037 312.333, 67 312.325, 67 310.132 C 67 308.887, 66.553 308.158, 66 308.500 C 64.125 309.659, 64.993 305.987, 67 304.268 C 69.385 302.226, 69.565 301, 67.481 301 C 66.360 301, 66.126 300.345, 66.589 298.500 C 67.232 295.941, 66.266 295.465, 63.018 296.740 M 36.813 299.683 C 37.534 299.972, 38.397 299.936, 38.729 299.604 C 39.061 299.272, 38.471 299.036, 37.417 299.079 C 36.252 299.127, 36.015 299.364, 36.813 299.683 M 22.882 309.838 C 22.816 310.202, 22.835 310.893, 22.922 311.373 C 23.010 311.853, 22.431 311.996, 21.635 311.690 C 20.839 311.385, 19.383 312.024, 18.400 313.110 C 16.791 314.889, 16.781 315.021, 18.306 314.436 C 19.238 314.079, 20 313.398, 20 312.924 C 20 312.451, 20.603 312.294, 21.340 312.577 C 22.077 312.860, 23.253 312.400, 23.953 311.557 C 24.654 310.713, 25.738 310.314, 26.363 310.671 C 26.988 311.028, 27.149 310.935, 26.721 310.465 C 25.745 309.393, 23.040 308.951, 22.882 309.838 M 8.459 328.067 C 8.096 328.653, 8.014 329.348, 8.276 329.610 C 8.538 329.872, 9.019 329.392, 9.345 328.543 C 10.021 326.781, 9.445 326.471, 8.459 328.067 M 13.507 330.989 C 13.157 331.555, 13.558 331.723, 14.448 331.382 C 16.180 330.717, 16.497 330, 15.059 330 C 14.541 330, 13.843 330.445, 13.507 330.989 M 9.500 332 C 9.160 332.550, 9.359 333, 9.941 333 C 10.523 333, 11 332.550, 11 332 C 11 331.450, 10.802 331, 10.559 331 C 10.316 331, 9.840 331.450, 9.500 332 M 3 338.941 C 3 340.931, 4.304 342.363, 5.252 341.415 C 6.036 340.631, 4.911 337, 3.883 337 C 3.398 337, 3 337.873, 3 338.941 M 318.729 345.604 C 318.328 346.005, 318 347.023, 318 347.867 C 318 348.992, 318.296 349.104, 319.113 348.288 C 319.724 347.676, 320.053 346.658, 319.842 346.025 C 319.631 345.392, 319.130 345.203, 318.729 345.604 M 325.638 347.500 C 325.955 348.325, 325.716 349, 325.107 349 C 324.498 349, 324 348.564, 324 348.031 C 324 347.499, 323.325 347.322, 322.500 347.638 C 320.809 348.287, 320.473 351.556, 322 352.500 C 323.425 353.381, 323.240 355.048, 321.750 354.750 C 320.378 354.476, 320.574 358.875, 321.999 360.363 C 322.992 361.399, 325.250 360.213, 324.523 359.037 C 324.243 358.584, 325.092 358.277, 326.411 358.356 C 327.729 358.435, 328.629 358.790, 328.410 359.145 C 328.191 359.500, 328.628 360.027, 329.381 360.316 C 330.226 360.640, 330.703 360.201, 330.626 359.171 C 330.539 358.014, 331.181 357.571, 332.711 357.731 C 334.304 357.898, 334.764 357.548, 334.354 356.481 C 334.042 355.667, 334.247 355, 334.810 355 C 335.373 355, 336.060 355.563, 336.338 356.250 C 336.733 357.229, 336.859 357.222, 336.921 356.219 C 336.964 355.514, 336.328 354.679, 335.506 354.364 C 334.684 354.048, 334.308 353.311, 334.670 352.725 C 335.077 352.066, 334.719 351.894, 333.729 352.274 C 332.849 352.611, 331.911 352.350, 331.644 351.694 C 331.370 351.020, 331.123 351.232, 331.079 352.179 C 330.970 354.500, 328.236 357.028, 326.539 356.377 C 325.768 356.081, 325.198 355.024, 325.273 354.029 C 325.352 352.983, 325.959 352.431, 326.713 352.720 C 327.662 353.084, 327.946 352.239, 327.758 349.612 C 327.613 347.584, 326.966 346.003, 326.281 346.002 C 325.609 346.001, 325.321 346.672, 325.638 347.500 M 9.158 357 C 9.158 358.375, 9.385 358.938, 9.662 358.250 C 9.940 357.563, 9.940 356.438, 9.662 355.750 C 9.385 355.063, 9.158 355.625, 9.158 357 M 33.411 358.856 C 33.702 359.326, 32.828 359.499, 31.470 359.239 C 30.111 358.979, 29 359.232, 29 359.800 C 29 361.174, 30.903 361.741, 33.712 361.204 C 36.266 360.716, 36.883 358, 34.441 358 C 33.584 358, 33.120 358.385, 33.411 358.856 M 32.250 364.031 C 29.710 365.052, 29.218 367, 31.500 367 C 32.325 367, 33 366.619, 33 366.153 C 33 365.687, 34.013 364.817, 35.250 364.220 C 37.991 362.899, 35.464 362.739, 32.250 364.031 M 7.913 365.914 C 5.969 367.856, 4.545 371.399, 6.093 370.443 C 6.764 370.028, 7.039 370.651, 6.831 372.116 C 6.237 376.306, 9.333 375.382, 11.952 370.588 C 13.293 368.133, 14.822 366.390, 15.350 366.716 C 15.888 367.049, 15.983 366.781, 15.565 366.106 C 14.990 365.175, 14.478 365.188, 13.303 366.164 C 12.065 367.191, 11.572 367.138, 10.642 365.876 C 9.613 364.481, 9.343 364.484, 7.913 365.914 M 8.374 369.467 C 7.356 372.119, 8.473 372.991, 9.656 370.467 C 10.302 369.088, 10.399 368, 9.875 368 C 9.359 368, 8.684 368.660, 8.374 369.467 M 679.079 727.583 C 679.127 728.748, 679.364 728.985, 679.683 728.188 C 679.972 727.466, 679.936 726.603, 679.604 726.271 C 679.272 725.939, 679.036 726.529, 679.079 727.583 M 679.286 735.500 C 679.294 738.250, 679.488 739.256, 679.718 737.736 C 679.947 736.216, 679.941 733.966, 679.704 732.736 C 679.467 731.506, 679.279 732.750, 679.286 735.500 M 337 761 C 337 761.550, 337.477 762, 338.059 762 C 338.641 762, 338.840 761.550, 338.500 761 C 338.160 760.450, 337.684 760, 337.441 760 C 337.198 760, 337 760.450, 337 761 M 341 825.500 C 341 826.991, 341.431 827.852, 342 827.500 C 342.550 827.160, 343 826.260, 343 825.500 C 343 824.740, 342.550 823.840, 342 823.500 C 341.431 823.148, 341 824.009, 341 825.500" stroke="none" fill="black" fill-rule="evenodd"/>
</svg>